<?xml version="1.0" encoding="utf-8"?>
<!-- Generator: Adobe Illustrator 23.0.3, SVG Export Plug-In . SVG Version: 6.00 Build 0)  -->
<svg version="1.1" id="Layer_1" xmlns="http://www.w3.org/2000/svg" xmlns:xlink="http://www.w3.org/1999/xlink" x="0px" y="0px"
	 viewBox="0 0 2134.65 1110.79" style="enable-background:new 0 0 2134.65 1110.79;" xml:space="preserve">
<style type="text/css">
	.st0{fill:#FFFFFF;}
	.st1{fill:#2323F1;}
</style>
<rect x="-37.32" y="-14.12" class="st0" width="2208" height="1162.55"/>
<g>
	<g>
		<path class="st1" d="M808.42,256.51c12.92-1.69,32.74-4.07,59.44-7.17c26.69-3.08,60.28-4.64,100.75-4.64
			c29.79,0,59.86,2.82,90.21,8.43c30.35,5.63,57.75,16.16,82.2,31.62c24.45,15.47,44.26,37.24,59.44,65.34
			c15.18,28.11,22.76,64.64,22.76,109.61c0,39.92-6.05,73.08-18.13,99.49c-12.09,26.43-28.11,47.5-48.06,63.23
			c-19.96,15.74-42.72,26.98-68.29,33.72c-25.58,6.75-51.85,10.12-78.83,10.12c-10.68,0-21.5-0.42-32.46-1.27
			c-10.96-0.84-18.69-1.82-23.19-2.95V858.5c-14.62,2.81-27.82,4.77-39.63,5.9c-11.8,1.12-22.76,1.69-32.88,1.69
			c-19.68,0-44.13-2.53-73.35-7.59V256.51z M954.28,541.48c2.81,1.13,7.59,1.98,14.33,2.53c6.74,0.57,13.77,0.84,21.08,0.84
			c24.16,0,43.84-7.02,59.02-21.08c15.18-14.04,22.76-35.41,22.76-64.08c0-16.86-2.4-31.05-7.17-42.58
			c-4.78-11.51-11.38-20.79-19.81-27.82c-8.43-7.02-18.27-11.93-29.51-14.75c-11.25-2.81-23.05-4.22-35.41-4.22
			c-3.37,0-7.31,0-11.8,0c-4.51,0-9,0.29-13.49,0.84V541.48z"/>
		<path class="st1" d="M1342.12,859.34c-12.94,2.24-24.74,3.93-35.41,5.06c-10.68,1.12-21.08,1.69-31.2,1.69
			c-10.12,0-21.79-0.71-34.99-2.11c-13.21-1.41-27.97-3.5-44.26-6.32l188.86-601.99c14.61-1.69,28.24-3.08,40.89-4.21
			c12.65-1.12,25.43-1.69,38.36-1.69c10.67,0,22.34,0.57,34.99,1.69c12.65,1.13,27.11,2.53,43.42,4.21l186.33,602.83
			c-32.04,5.06-60.15,7.59-84.31,7.59c-11.25,0-22.49-0.57-33.72-1.69c-11.25-1.13-23.33-2.82-36.25-5.06l-32.04-117.19
			c-15.74,4.5-30.77,7.88-45.11,10.12c-14.33,2.25-28.54,3.37-42.58,3.37c-12.94,0-26.14-0.98-39.63-2.95
			c-13.49-1.96-27.55-4.91-42.16-8.85L1342.12,859.34z M1460.15,414.17l-56.49,216.68c9.55,2.82,18.55,5.06,26.98,6.75
			c8.43,1.69,17.14,2.53,26.14,2.53c9.55,0,18.97-0.7,28.25-2.11c9.27-1.4,18.97-3.5,29.09-6.32L1460.15,414.17z"/>
		<path class="st1" d="M1783.91,256.51c15.18-2.24,28.94-3.93,41.31-5.06c12.36-1.12,23.32-1.69,32.88-1.69
			c10.12,0,21.5,0.57,34.15,1.69c12.65,1.13,26.27,2.82,40.89,5.06v472.15h194.76c2.81,14.06,4.64,26.28,5.48,36.68
			c0.84,10.41,1.26,19.81,1.26,28.24c0,9.56-0.42,19.54-1.26,29.93c-0.84,10.41-2.67,22.91-5.48,37.52h-343.99V256.51z"/>
	</g>
	<g>
		<g>
			<g>
				<path class="st1" d="M555.15,974.76c-1.95,4.57-5.1,7.96-9.26,10.7c-4.16,2.75-9.31,4.83-15.26,6.78
					c-8.55,2.8-20.44,5.75-35.31,8.79c-32.23,6.58-77.6,13.35-131.22,19.57c-150.06,17.41-263.2,61.34-311.5,80.11
					c-18.95,7.36-24.64,9.5-30.06,9.99c-0.71,0.06-1.41,0.09-2.1,0.09c-2.99,0-5.79-0.6-8.53-1.82c-5.04-2.29-8.81-6.33-10.67-11.43
					c-2.14-5.74-1.49-12.21,1.81-17.65c1.84-3.04,5.63-9.31,36.65-26.41c20.19-11.12,45.53-23.16,71.37-33.89
					c53.43-22.2,138.53-51.4,240.52-64.52c53.95-6.93,100.49-11.32,134.58-12.69c47.79-1.9,59.49,2.13,66.4,11.29
					C557.2,959.78,558.18,967.68,555.15,974.76z"/>
			</g>
		</g>
		<g>
			<g>
				<path class="st1" d="M687.66,21.2c-0.09,2.02-0.25,5.72-5.22,14.69c-4.96,8.98-14.75,23.22-34.07,46.36
					c-19.9,23.83-53.53,60.81-100.71,101.69c-2.23,1.93-4.42,3.81-6.51,5.58c-4.54,3.86-9.09,7.66-13.55,11.32
					c-2.3,1.89-4.37,3.57-6.32,5.14c-25.42,20.48-51.9,39.67-78.69,57c-4.73,3.07-9.68,6.2-14.7,9.31c-2.85,1.77-5.88,3.63-9,5.51
					c-13,7.83-25.5,15.24-37.17,22.01c-4.51,2.62-8.44,4.88-12.04,6.93c-34.44,19.67-63.96,35.12-85.34,44.69
					c-9.02,4.04-16.61,7.02-22.56,8.88c-0.96,0.3-1.87,0.57-2.74,0.81c-4.5,1.25-8.42,1.79-11.84,1.79
					c-10.66,0-16.41-5.23-19.5-10.34c-2.72-4.51-6.12-13.79,1.83-25.24c3.63-5.22,9.73-11.12,19.81-19.12
					c14.04-11.16,35.53-26.02,62.15-42.98l1.58-1c1.75-1.12,3.55-2.26,5.37-3.41c6.53-4.13,13.71-8.58,21.3-13.24l0.67-0.4
					c2.85-1.74,5.74-3.51,8.69-5.29c10.08-6.1,20.82-12.5,31.92-19.01c7.05-4.14,14.29-8.49,21.54-12.96
					c4.14-2.56,8.08-5.03,11.72-7.34c16.05-10.17,32.19-20.97,47.97-32.12c3.74-2.64,7.72-5.49,11.87-8.5l4.81-3.51
					c23.89-17.51,47.59-36.27,70.48-55.82c2.44-2.08,4.91-4.21,7.36-6.32c35.06-30.4,61.32-56.68,77.02-72.38
					c9.19-9.19,13.9-13.84,17.38-16.85C655.44,3.41,660.38,0,667.53,0h0.17c5.44,0.05,10.51,2.21,14.28,6.09
					C685.9,10.16,687.91,15.5,687.66,21.2z"/>
			</g>
		</g>
		<g>
			<path class="st1" d="M435.69,500.63c-0.41,10.94,31.03-37.44,31.15-55.47c6.47-3.45,12.15-8.64,16.61-15.07
				c6.4-9.24,10.29-21.07,10.42-34.04c0.15-14.68-4.49-28.66-13.06-39.38c-8.71-10.88-20.42-17.1-32.97-17.51
				c-25.68-0.84-46.82,23.32-47.12,53.85c-0.15,14.68,4.49,28.66,13.06,39.38C419.38,439.38,428.2,497.8,435.69,500.63z"/>
			<path class="st1" d="M436.43,518.21c-3.03,0-6.01-0.82-8.68-2.46c-2.47-1.52-4.44-3.61-5.82-6.09
				c-5.93-7.34-9.39-20.85-15.02-44.4c-1.93-8.08-4.81-20.09-6.35-23.84c-10.39-13.45-15.99-30.65-15.81-48.57
				c0.2-20.63,8.21-40.03,21.97-53.21c11.59-11.11,26.4-16.95,41.65-16.46c17.29,0.56,33.25,8.9,44.93,23.5
				c10.86,13.59,16.75,31.17,16.56,49.52c-0.15,15.81-4.74,30.67-13.26,42.98c-4.22,6.09-9.34,11.37-15.06,15.56
				c-2.51,10.45-8.22,22.16-13.2,31.09c-6.32,11.34-15.5,25.76-23.32,30.1C442.28,517.46,439.34,518.21,436.43,518.21z
				 M446.55,355.12c-8.07,0-14.07,4.1-17.72,7.6c-7.59,7.27-12,18.37-12.12,30.45c-0.11,11.01,3.29,21.39,9.56,29.24
				c4.26,5.32,6.48,13.47,11.73,35.41c0.81,3.39,1.8,7.51,2.84,11.68c0.25-0.46,0.51-0.93,0.77-1.4
				c7.53-13.96,9.23-21.37,9.25-23.05l0.11-9.46l8.35-4.53c4.16-2.22,7.96-5.7,10.99-10.07c4.8-6.93,7.49-15.84,7.58-25.09
				c0.11-11.01-3.29-21.39-9.56-29.24c-5.74-7.17-13.2-11.27-21-11.52C447.07,355.13,446.81,355.12,446.55,355.12z M401.3,442.37
				c0,0,0.01,0.01,0.01,0.01C401.31,442.37,401.3,442.37,401.3,442.37z"/>
		</g>
		<g>
			<g>
				<path class="st1" d="M568.93,209.99c-1.35,16.26-3.5,33.83-6.39,52.22c-7.4,46.95-19.33,96.56-34.5,143.46
					c-4.34,13.43-9.04,26.92-13.96,40.11c-7.23,19.38-15.15,38.6-23.54,57.13c-2.26,5-4.56,9.97-6.82,14.74
					c-0.76,1.58-1.5,3.12-2.24,4.67c-3.65,7.56-7.44,15.14-11.28,22.55c-2.98,5.77-6.16,11.77-9.47,17.8
					c-53.6,98.11-117.2,171.21-161.12,215.24c-27.54,27.62-49.91,46.49-63.82,57.46c-25.42,20.01-33.24,22.47-35.82,23.26
					c-1.1,0.35-2.15,0.6-3.19,0.77c-1.16,0.19-2.32,0.28-3.47,0.28c-5.12,0-10.01-1.87-13.79-5.35c-4.03-3.74-6.31-8.82-6.42-14.3
					c-0.18-7.17,3.26-12.26,6.64-16.27c2.8-3.32,7.08-7.73,15.53-16.32c38.62-39.27,141.21-143.59,223.03-307.57
					c1.17-2.35,2.35-4.71,3.51-7.1c2.53-5.13,5.06-10.42,7.55-15.71c2.3-4.87,4.53-9.68,6.62-14.31c2.59-5.69,5.22-11.64,7.86-17.71
					c3.42-7.88,6.77-15.86,9.98-23.71c7.71-18.91,15.03-38.34,21.79-57.75c27.43-78.79,40.32-142.16,47.24-176.2
					c0.76-3.72,1.45-7.08,2.07-10.06c3.25-15.58,4.87-23.39,13.1-28.68c4.55-2.94,9.98-3.92,15.27-2.73
					c16.39,3.59,16.83,21.06,17.04,29.46v0.01C570.54,184.3,570.05,196.28,568.93,209.99z"/>
			</g>
		</g>
		<g>
			<path class="st1" d="M475.17,724.6c-0.27,6.7-0.57,12.72-0.92,18.42c-1.26,21.21-3.25,42.63-5.89,63.68
				c-8.44,67.16-21.73,116.54-29.67,142.06l0.01,0.05l-1.64,5.09c-3.32,10.25-9.68,28.69-15.05,37.18
				c-1.19,1.88-4.84,7.67-12.33,10.02c-1.95,0.61-3.95,0.91-5.95,0.91c-0.98,0-1.96-0.07-2.94-0.21
				c-9.47-1.42-16.54-9.25-17.27-19.05c-0.41-5.21,0.81-11.64,4.08-28.81l1.22-6.45c5.11-27.04,11.58-63.9,16.23-109.45
				c0.06-0.64,0.13-1.29,0.19-1.94l0.12-1.11c1.64-16.53,2.95-33.24,3.89-49.69c1.34-23.29,1.99-46.82,1.93-69.92
				c-0.12-49.98-3.51-100.06-10.05-148.88c-0.66-4.88-1.34-9.75-2.03-14.43c-2.15-14.52-4.62-29.26-7.33-43.78l-0.23-1.2
				c-13.05-69.22-32.9-139.08-59.01-207.67l-6-15.79l14.68-8.36c3.52-2.01,7.36-4.23,11.78-6.77l18.21-10.59l9.36,18.89
				c14.01,28.27,34.57,74.28,52.94,132.93l0.05,0.16c2.59,8.27,5.09,16.65,7.44,24.92l0.13,0.48c2.49,8.78,4.89,17.76,7.16,26.73
				c3.66,14.5,7,29.25,9.95,43.84c2.18,10.85,4.19,21.83,5.95,32.62c0.79,4.84,1.54,9.67,2.23,14.36l0.06,0.36
				C474.6,608.93,477.52,666.57,475.17,724.6z"/>
		</g>
	</g>
</g>
</svg>
